<svg version="1.1" id="Layer_1" xmlns="http://www.w3.org/2000/svg" xmlns:xlink="http://www.w3.org/1999/xlink" x="0px" y="0px"
	 width="100%" viewBox="0 0 1024 768" enable-background="new 0 0 1024 768" xml:space="preserve">
<path fill="#000000" opacity="1.000000" stroke="none" 
	d="
M597.213623,488.088806 
	C581.371216,514.626160 557.612793,528.416992 527.939270,532.221191 
	C489.478790,537.151978 454.552582,525.920166 421.378418,507.502563 
	C418.351471,505.822052 418.015961,504.015472 419.421204,501.018463 
	C424.369507,490.464722 429.240173,479.870422 433.880066,469.178558 
	C435.489014,465.471008 437.160706,464.959320 440.639343,466.999664 
	C456.920715,476.549225 474.124115,484.060150 492.109955,489.815552 
	C504.298309,493.715729 516.416504,493.338837 528.360046,489.192078 
	C542.676758,484.221344 549.970520,473.217194 551.538818,458.793304 
	C554.083801,435.386597 546.959351,423.148010 525.839478,412.589783 
	C511.835205,405.588745 496.958588,400.509735 483.069427,393.232300 
	C475.096924,389.054962 467.151550,384.886505 459.883942,379.503937 
	C439.330078,364.281372 428.290588,344.404938 427.424072,318.399506 
	C426.529877,291.562988 437.299133,270.933197 458.151093,255.188858 
	C473.547455,243.563797 491.197174,237.766525 510.535980,236.579071 
	C541.090332,234.702927 569.573792,242.045074 596.832642,255.119110 
	C604.132141,258.620148 604.012512,258.913239 600.151184,265.698547 
	C595.044373,274.672516 589.778992,283.559540 584.851746,292.630493 
	C582.983826,296.069122 581.180542,296.545166 577.754272,294.709564 
	C563.157349,286.889496 547.952454,280.523132 531.493469,277.907196 
	C520.457458,276.153168 509.594452,277.013885 499.321991,282.044189 
	C487.433075,287.866058 482.043396,299.510773 484.540100,313.367371 
	C486.922760,326.590881 493.879547,336.517242 504.786621,344.186066 
	C519.002014,354.180847 535.477905,359.357727 551.007019,366.543884 
	C563.000305,372.093903 574.637634,378.194031 584.560059,387.045441 
	C604.596375,404.919098 610.024353,428.040253 607.874390,453.664398 
	C606.861328,465.737976 603.403931,477.172455 597.213623,488.088806 
z"/>
<path fill="#000000" opacity="1.000000" stroke="none" 
	d="
M145.994110,296.119080 
	C182.370590,211.617447 245.627182,160.917282 336.071228,147.204651 
	C405.897858,136.617905 468.607117,156.025024 523.188293,201.286636 
	C514.189636,201.230591 505.264374,204.788589 496.554108,198.685181 
	C468.260773,178.859497 436.790710,166.351929 402.639801,161.600250 
	C344.542938,153.516815 290.787872,165.598099 242.058853,198.634705 
	C238.293900,201.187225 234.632904,202.891846 230.055817,202.331787 
	C226.897278,201.945297 224.724945,202.876205 225.173340,206.619141 
	C225.603653,210.211105 223.675629,212.490417 221.170181,214.685364 
	C189.068604,242.808838 165.535400,276.959961 154.025894,318.019501 
	C128.801285,408.006805 150.271637,486.008240 217.306290,551.266724 
	C221.229980,555.086426 226.062973,557.903625 225.438354,564.564331 
	C225.206696,567.034729 227.840530,567.113525 229.599655,566.906067 
	C234.808884,566.291931 238.804092,568.588257 242.899429,571.418579 
	C271.916779,591.472595 304.085968,603.871460 338.934357,608.392090 
	C396.618256,615.874939 449.707428,602.935486 497.796509,570.084412 
	C501.010376,567.888855 504.160828,566.673767 507.993744,566.939575 
	C513.042358,567.289795 518.188904,566.385071 523.602112,567.701294 
	C467.707336,620.093628 356.904694,650.170410 255.873215,596.603516 
	C149.076233,539.979797 101.099197,409.486847 145.994110,296.119080 
z"/>
</svg>