<svg version="1.1" id="Layer_1" xmlns="http://www.w3.org/2000/svg" xmlns:xlink="http://www.w3.org/1999/xlink" x="0px" y="0px"
	 width="100%" viewBox="0 0 2000 1500" enable-background="new 0 0 2000 1500" xml:space="preserve">
<path fill="#282634" opacity="1.000000" stroke="none" 
	d="
M1404.000000,1501.000000 
	C936.000122,1501.000000 468.500275,1501.000000 1.000314,1501.000000 
	C1.000209,1001.000305 1.000209,501.000580 1.000105,1.000649 
	C667.666199,1.000433 1334.332397,1.000433 2000.998901,1.000216 
	C2000.999268,500.999359 2000.999268,1000.998718 2000.999634,1500.999023 
	C1802.166626,1501.000000 1603.333374,1501.000000 1404.000000,1501.000000 
M1502.062012,283.034729 
	C1501.729736,283.025421 1501.397461,283.007996 1501.065186,283.007965 
	C1191.761719,283.004608 882.458313,283.002014 573.154846,283.011108 
	C571.556580,283.011169 569.958374,283.176331 568.292969,283.268097 
	C568.292969,335.174530 568.292969,386.603973 568.292969,438.348419 
	C585.596191,438.348419 602.646301,438.348419 620.295349,438.348419 
	C620.295349,403.746918 620.295349,369.506897 620.295349,335.133057 
	C897.633667,335.133057 1174.372192,335.133057 1451.437500,335.133057 
	C1451.437500,612.117676 1451.437500,888.821777 1451.437500,1165.772949 
	C1174.312500,1165.772949 897.468323,1165.772949 619.988281,1165.772949 
	C619.988281,1131.189575 619.988281,1096.974731 619.988281,1062.602783 
	C602.435303,1062.602783 585.519653,1062.602783 568.363892,1062.602783 
	C568.363892,1114.467163 568.363892,1166.013306 568.363892,1218.000000 
	C570.981079,1218.000000 573.279785,1218.000000 575.578430,1218.000000 
	C882.548767,1218.000000 1189.519043,1218.000366 1496.489380,1217.993286 
	C1498.652710,1217.993164 1500.816040,1217.890625 1503.464844,1217.823364 
	C1503.815308,1217.635620 1503.914917,1217.357910 1503.863770,1216.058960 
	C1503.874023,1215.226074 1503.892944,1214.393311 1503.892944,1213.560425 
	C1503.894409,905.211914 1503.895020,596.863342 1503.889648,288.514801 
	C1503.889648,287.017456 1503.807373,285.520081 1503.805664,283.538513 
	C1503.637573,283.187042 1503.365723,283.062653 1502.062012,283.034729 
M1152.349976,1008.876221 
	C1154.281372,1007.897583 1156.227783,1006.947449 1158.141724,1005.935913 
	C1190.332642,988.924377 1217.393066,966.386719 1235.012451,933.881226 
	C1247.059448,911.656006 1253.609619,887.899414 1256.322632,862.671570 
	C1258.257812,844.678040 1258.648804,826.811707 1256.723999,809.007935 
	C1250.542358,751.830444 1221.175659,709.893921 1170.886108,682.718689 
	C1137.079468,664.450378 1100.175049,656.743835 1062.210815,654.004272 
	C1046.118408,652.843018 1029.911743,653.260559 1013.757019,652.968506 
	C1012.140381,652.939270 1010.522827,652.964539 1009.024475,652.964539 
	C1006.886963,643.795532 1009.855774,636.895691 1017.797363,633.761963 
	C1021.858093,632.159607 1026.411987,631.429993 1030.802856,631.098694 
	C1083.862061,627.095154 1134.169800,637.534973 1181.953979,660.549133 
	C1185.716187,662.361145 1187.670410,661.947510 1190.346191,658.989746 
	C1206.091675,641.585144 1215.002930,620.931458 1217.724121,597.975891 
	C1219.413452,583.726257 1219.113770,569.179810 1218.857056,554.781799 
	C1218.683105,545.024963 1217.069702,535.290466 1216.033081,525.553223 
	C1214.778564,513.767761 1208.450073,506.828766 1197.469849,501.663910 
	C1144.211060,476.612030 1088.005981,464.741028 1029.566895,462.001312 
	C999.431030,460.588501 969.383606,461.720947 939.526001,466.051453 
	C899.711731,471.825989 862.141968,483.976776 828.008057,505.871490 
	C753.939514,553.381653 730.915955,632.925659 750.163635,707.406677 
	C761.048523,749.526855 788.916199,778.826660 825.737366,800.175537 
	C869.172668,825.359314 917.008850,833.760742 966.336426,835.927124 
	C976.149170,836.358093 985.997253,835.946411 995.827393,836.063843 
	C997.119568,836.079285 999.061523,836.555969 999.581726,837.462280 
	C1003.024170,843.460815 999.145691,853.796692 992.635742,856.300415 
	C990.633789,857.070374 988.484741,857.877075 986.389648,857.914368 
	C976.324097,858.093445 966.248657,858.228271 956.186523,857.981262 
	C937.854004,857.531006 919.741394,854.981323 901.867493,851.014099 
	C861.436890,842.040466 822.624084,829.102661 788.881836,803.966736 
	C787.880737,803.220947 785.178589,803.338440 784.246887,804.160828 
	C779.770630,808.111633 774.956116,811.951050 771.476929,816.717102 
	C741.267151,858.101379 741.059814,902.162842 761.975525,947.020508 
	C774.905518,974.751221 798.337402,992.454224 825.014282,1006.079895 
	C867.613647,1027.838501 913.760925,1035.649414 960.713501,1038.704712 
	C990.088562,1040.616211 1019.650818,1040.340576 1049.065430,1037.027100 
	C1084.720581,1033.010498 1119.230347,1024.962158 1152.349976,1008.876221 
z"/>
<path fill="#FF4057" opacity="1.000000" stroke="none" 
	d="
M1152.005859,1009.020386 
	C1119.230347,1024.962158 1084.720581,1033.010498 1049.065430,1037.027100 
	C1019.650818,1040.340576 990.088562,1040.616211 960.713501,1038.704712 
	C913.760925,1035.649414 867.613647,1027.838501 825.014282,1006.079895 
	C798.337402,992.454224 774.905518,974.751221 761.975525,947.020508 
	C741.059814,902.162842 741.267151,858.101379 771.476929,816.717102 
	C774.956116,811.951050 779.770630,808.111633 784.246887,804.160828 
	C785.178589,803.338440 787.880737,803.220947 788.881836,803.966736 
	C822.624084,829.102661 861.436890,842.040466 901.867493,851.014099 
	C919.741394,854.981323 937.854004,857.531006 956.186523,857.981262 
	C966.248657,858.228271 976.324097,858.093445 986.389648,857.914368 
	C988.484741,857.877075 990.633789,857.070374 992.635742,856.300415 
	C999.145691,853.796692 1003.024170,843.460815 999.581726,837.462280 
	C999.061523,836.555969 997.119568,836.079285 995.827393,836.063843 
	C985.997253,835.946411 976.149170,836.358093 966.336426,835.927124 
	C917.008850,833.760742 869.172668,825.359314 825.737366,800.175537 
	C788.916199,778.826660 761.048523,749.526855 750.163635,707.406677 
	C730.915955,632.925659 753.939514,553.381653 828.008057,505.871490 
	C862.141968,483.976776 899.711731,471.825989 939.526001,466.051453 
	C969.383606,461.720947 999.431030,460.588501 1029.566895,462.001312 
	C1088.005981,464.741028 1144.211060,476.612030 1197.469849,501.663910 
	C1208.450073,506.828766 1214.778564,513.767761 1216.033081,525.553223 
	C1217.069702,535.290466 1218.683105,545.024963 1218.857056,554.781799 
	C1219.113770,569.179810 1219.413452,583.726257 1217.724121,597.975891 
	C1215.002930,620.931458 1206.091675,641.585144 1190.346191,658.989746 
	C1187.670410,661.947510 1185.716187,662.361145 1181.953979,660.549133 
	C1134.169800,637.534973 1083.862061,627.095154 1030.802856,631.098694 
	C1026.411987,631.429993 1021.858093,632.159607 1017.797363,633.761963 
	C1009.855774,636.895691 1006.886963,643.795532 1009.024475,652.964539 
	C1010.522827,652.964539 1012.140381,652.939270 1013.757019,652.968506 
	C1029.911743,653.260559 1046.118408,652.843018 1062.210815,654.004272 
	C1100.175049,656.743835 1137.079468,664.450378 1170.886108,682.718689 
	C1221.175659,709.893921 1250.542358,751.830444 1256.723999,809.007935 
	C1258.648804,826.811707 1258.257812,844.678040 1256.322632,862.671570 
	C1253.609619,887.899414 1247.059448,911.656006 1235.012451,933.881226 
	C1217.393066,966.386719 1190.332642,988.924377 1158.141724,1005.935913 
	C1156.227783,1006.947449 1154.281372,1007.897583 1152.005859,1009.020386 
z"/>
<path fill="#FF4057" opacity="1.000000" stroke="none" 
	d="
M1502.979370,1217.836060 
	C1500.816040,1217.890625 1498.652710,1217.993164 1496.489380,1217.993286 
	C1189.519043,1218.000366 882.548767,1218.000000 575.578430,1218.000000 
	C573.279785,1218.000000 570.981079,1218.000000 568.363892,1218.000000 
	C568.363892,1166.013306 568.363892,1114.467163 568.363892,1062.602783 
	C585.519653,1062.602783 602.435303,1062.602783 619.988281,1062.602783 
	C619.988281,1096.974731 619.988281,1131.189575 619.988281,1165.772949 
	C897.468323,1165.772949 1174.312500,1165.772949 1451.437500,1165.772949 
	C1451.437500,888.821777 1451.437500,612.117676 1451.437500,335.133057 
	C1174.372192,335.133057 897.633667,335.133057 620.295349,335.133057 
	C620.295349,369.506897 620.295349,403.746918 620.295349,438.348419 
	C602.646301,438.348419 585.596191,438.348419 568.292969,438.348419 
	C568.292969,386.603973 568.292969,335.174530 568.292969,283.268097 
	C569.958374,283.176331 571.556580,283.011169 573.154846,283.011108 
	C882.458313,283.002014 1191.761719,283.004608 1501.065186,283.007965 
	C1501.397461,283.007996 1501.729736,283.025421 1502.636230,283.259277 
	C1503.366089,283.692902 1503.550415,283.872559 1503.763428,284.022736 
	C1503.807373,285.520081 1503.889648,287.017456 1503.889648,288.514801 
	C1503.895020,596.863342 1503.894409,905.211914 1503.892944,1213.560425 
	C1503.892944,1214.393311 1503.874023,1215.226074 1503.663086,1216.646118 
	C1503.278076,1217.415527 1503.117065,1217.616455 1502.979370,1217.836060 
z"/>
<path fill="#DA3A50" opacity="1.000000" stroke="none" 
	d="
M1503.784546,283.780640 
	C1503.550415,283.872559 1503.366089,283.692902 1503.100342,283.324585 
	C1503.365723,283.062653 1503.637573,283.187042 1503.784546,283.780640 
z"/>
<path fill="#DA3A50" opacity="1.000000" stroke="none" 
	d="
M1503.222168,1217.829712 
	C1503.117065,1217.616455 1503.278076,1217.415527 1503.612915,1217.111816 
	C1503.914917,1217.357910 1503.815308,1217.635620 1503.222168,1217.829712 
z"/>
</svg>